<?xml version="1.0" standalone="no"?>
<!DOCTYPE svg PUBLIC "-//W3C//DTD SVG 20010904//EN"
 "http://www.w3.org/TR/2001/REC-SVG-20010904/DTD/svg10.dtd">
<svg version="1.0" xmlns="http://www.w3.org/2000/svg"
 width="1200.000000pt" height="1200.000000pt" viewBox="0 0 1200.000000 1200.000000"
 preserveAspectRatio="xMidYMid meet">

<g transform="translate(0.000000,1200.000000) scale(0.100000,-0.100000)"
fill="#000000" stroke="none">
<path d="M8602 9677 l-363 -363 156 -1095 c85 -602 158 -1104 160 -1116 l5
-23 -684 0 -683 0 78 -132 c44 -73 79 -135 79 -139 0 -3 -146 -302 -325 -664
-179 -361 -325 -661 -325 -665 0 -4 52 -38 115 -76 72 -43 111 -72 106 -78 -5
-6 -203 -272 -441 -591 l-433 -580 1277 1273 c703 701 1280 1271 1284 1268 3
-4 85 -561 183 -1239 l177 -1232 3 1430 c2 787 2 2095 -1 2908 l-5 1477 -363
-363z m-1342 -3901 c0 -2 -8 -10 -17 -17 -16 -13 -17 -12 -4 4 13 16 21 21 21
13z m-30 -40 c0 -2 -8 -10 -17 -17 -16 -13 -17 -12 -4 4 13 16 21 21 21 13z
m-30 -40 c0 -2 -8 -10 -17 -17 -16 -13 -17 -12 -4 4 13 16 21 21 21 13z m-30
-40 c0 -2 -8 -10 -17 -17 -16 -13 -17 -12 -4 4 13 16 21 21 21 13z m-30 -40
c0 -2 -8 -10 -17 -17 -16 -13 -17 -12 -4 4 13 16 21 21 21 13z m-30 -40 c0 -2
-8 -10 -17 -17 -16 -13 -17 -12 -4 4 13 16 21 21 21 13z m-30 -40 c0 -2 -8
-10 -17 -17 -16 -13 -17 -12 -4 4 13 16 21 21 21 13z m-30 -40 c0 -2 -8 -10
-17 -17 -16 -13 -17 -12 -4 4 13 16 21 21 21 13z m-30 -40 c0 -2 -8 -10 -17
-17 -16 -13 -17 -12 -4 4 13 16 21 21 21 13z m-30 -40 c0 -2 -8 -10 -17 -17
-16 -13 -17 -12 -4 4 13 16 21 21 21 13z m-30 -40 c0 -2 -8 -10 -17 -17 -16
-13 -17 -12 -4 4 13 16 21 21 21 13z"/>
<path d="M4668 8725 c-703 -701 -1278 -1274 -1278 -1272 -1 1 -81 560 -179
1242 l-179 1240 -3 -1430 c-2 -786 -2 -2095 1 -2908 l5 -1477 363 363 363 363
-156 1095 c-85 602 -158 1104 -160 1117 l-5 22 684 0 685 0 -81 135 -81 136
324 655 c178 360 325 661 327 668 2 8 -47 43 -112 82 -73 43 -112 72 -107 78
34 44 870 1166 868 1166 -1 -1 -577 -574 -1279 -1275z m402 81 c0 -2 -8 -10
-17 -17 -16 -13 -17 -12 -4 4 13 16 21 21 21 13z m-30 -40 c0 -2 -8 -10 -17
-17 -16 -13 -17 -12 -4 4 13 16 21 21 21 13z m-30 -40 c0 -2 -8 -10 -17 -17
-16 -13 -17 -12 -4 4 13 16 21 21 21 13z m-30 -40 c0 -2 -8 -10 -17 -17 -16
-13 -17 -12 -4 4 13 16 21 21 21 13z m-30 -40 c0 -2 -8 -10 -17 -17 -16 -13
-17 -12 -4 4 13 16 21 21 21 13z m-30 -40 c0 -2 -8 -10 -17 -17 -16 -13 -17
-12 -4 4 13 16 21 21 21 13z m-30 -40 c0 -2 -8 -10 -17 -17 -16 -13 -17 -12
-4 4 13 16 21 21 21 13z m-30 -40 c0 -2 -8 -10 -17 -17 -16 -13 -17 -12 -4 4
13 16 21 21 21 13z m-30 -40 c0 -2 -8 -10 -17 -17 -16 -13 -17 -12 -4 4 13 16
21 21 21 13z m-30 -40 c0 -2 -8 -10 -17 -17 -16 -13 -17 -12 -4 4 13 16 21 21
21 13z m-30 -40 c0 -2 -8 -10 -17 -17 -16 -13 -17 -12 -4 4 13 16 21 21 21 13z"/>
<path d="M3505 3396 c-173 -43 -266 -178 -266 -386 0 -180 59 -296 185 -360
61 -31 77 -35 169 -38 l102 -4 46 -43 c57 -53 75 -63 141 -75 81 -16 88 -10
88 70 l0 68 -35 6 c-19 4 -47 17 -62 30 l-27 23 37 43 c64 75 82 136 82 280 0
115 -2 130 -27 182 -37 79 -71 121 -126 157 -87 55 -202 73 -307 47z m175
-155 c45 -31 63 -85 68 -201 7 -175 -22 -258 -98 -281 -82 -25 -157 17 -181
102 -15 55 -15 230 0 286 29 105 130 150 211 94z"/>
<path d="M4190 3011 l0 -391 99 0 c81 0 100 3 105 16 3 9 6 81 6 160 l0 144
49 0 c29 0 53 -6 60 -13 6 -8 35 -79 65 -158 l54 -144 103 -3 c56 -1 106 1
110 5 5 5 -23 79 -61 166 -39 87 -70 162 -70 167 0 5 12 16 28 24 68 35 112
110 112 190 0 68 -12 102 -53 144 -62 64 -113 75 -374 80 l-233 4 0 -391z
m399 234 c56 -29 63 -106 14 -145 -21 -17 -41 -20 -114 -20 l-89 0 0 90 0 90
80 0 c51 0 91 -5 109 -15z"/>
<path d="M5386 3384 c-8 -20 -8 -727 0 -748 5 -13 22 -16 85 -16 l79 0 0 262
c0 178 3 259 10 252 6 -6 48 -123 94 -260 l83 -249 68 0 68 0 86 257 c47 141
89 260 94 264 4 4 7 -113 7 -260 l0 -267 103 3 102 3 0 385 0 385 -141 3
c-105 2 -144 -1 -152 -10 -5 -7 -38 -100 -72 -205 -34 -106 -65 -193 -70 -193
-4 0 -39 91 -78 203 l-70 202 -145 3 c-125 2 -145 0 -151 -14z"/>
<path d="M6644 3161 c-109 -51 -168 -146 -168 -271 -1 -117 48 -201 148 -252
57 -30 185 -37 253 -14 50 16 143 96 143 122 0 6 -23 21 -51 34 l-51 22 -27
-25 c-37 -35 -64 -47 -106 -47 -67 0 -125 51 -125 110 0 19 5 20 184 20 117 0
187 4 191 10 4 6 1 42 -5 81 -15 87 -56 152 -124 194 -43 26 -60 30 -135 33
-68 2 -95 -1 -127 -17z m150 -91 c28 -10 66 -64 66 -92 0 -16 -11 -18 -100
-18 l-100 0 6 28 c11 45 24 63 57 77 39 17 40 17 71 5z"/>
<path d="M7483 3151 c-28 -17 -54 -35 -58 -41 -13 -21 -25 -9 -25 25 l0 35
-90 0 -90 0 2 -272 3 -273 84 -3 c61 -2 87 1 92 10 5 7 9 95 9 195 l0 182 29
20 c36 26 92 27 114 3 15 -16 17 -46 17 -215 l0 -197 89 0 c72 0 90 3 95 16
10 27 7 370 -5 422 -7 34 -20 59 -45 83 -31 30 -41 34 -102 37 -60 3 -73 0
-119 -27z"/>
<path d="M7954 3145 c-3 -14 -5 -114 -2 -223 4 -220 10 -244 78 -289 60 -41
182 -23 234 36 26 29 34 27 38 -11 l3 -33 86 -3 87 -3 7 203 c4 112 5 235 3
273 l-3 70 -90 0 -90 0 -5 -193 -5 -192 -30 -20 c-38 -25 -87 -26 -108 -2 -15
16 -17 46 -17 215 l0 197 -90 0 c-88 0 -90 -1 -96 -25z"/>
</g>
</svg>
